<?xml version="1.0" encoding="UTF-8" standalone="no"?>
<!DOCTYPE svg PUBLIC "-//W3C//DTD SVG 1.1//EN"
 "http://www.w3.org/Graphics/SVG/1.1/DTD/svg11.dtd">
<!-- Generated by graphviz version 2.48.0 (20210717.2242)
 -->
<!-- Title: snakemake_dag Pages: 1 -->
<svg width="857pt" height="508pt"
 viewBox="0.00 0.00 857.00 508.00" xmlns="http://www.w3.org/2000/svg" xmlns:xlink="http://www.w3.org/1999/xlink">
<g id="graph0" class="graph" transform="scale(1 1) rotate(0) translate(4 504)">
<title>snakemake_dag</title>
<polygon fill="white" stroke="transparent" points="-4,4 -4,-504 853,-504 853,4 -4,4"/>
<!-- 0 -->
<g id="node1" class="node">
<title>0</title>
<path fill="none" stroke="#56d8a9" stroke-width="2" stroke-dasharray="5,2" d="M475,-36C475,-36 445,-36 445,-36 439,-36 433,-30 433,-24 433,-24 433,-12 433,-12 433,-6 439,0 445,0 445,0 475,0 475,0 481,0 487,-6 487,-12 487,-12 487,-24 487,-24 487,-30 481,-36 475,-36"/>
<text text-anchor="middle" x="460" y="-15.5" font-family="sans" font-size="10.00">all</text>
</g>
<!-- 1 -->
<g id="node2" class="node">
<title>1</title>
<path fill="none" stroke="#56a9d8" stroke-width="2" stroke-dasharray="5,2" d="M483,-108C483,-108 437,-108 437,-108 431,-108 425,-102 425,-96 425,-96 425,-84 425,-84 425,-78 431,-72 437,-72 437,-72 483,-72 483,-72 489,-72 495,-78 495,-84 495,-84 495,-96 495,-96 495,-102 489,-108 483,-108"/>
<text text-anchor="middle" x="460" y="-87.5" font-family="sans" font-size="10.00">draw_plots</text>
</g>
<!-- 1&#45;&gt;0 -->
<g id="edge1" class="edge">
<title>1&#45;&gt;0</title>
<path fill="none" stroke="grey" stroke-width="2" d="M460,-71.7C460,-63.98 460,-54.71 460,-46.11"/>
<polygon fill="grey" stroke="grey" stroke-width="2" points="463.5,-46.1 460,-36.1 456.5,-46.1 463.5,-46.1"/>
</g>
<!-- 2 -->
<g id="node3" class="node">
<title>2</title>
<path fill="none" stroke="#d85656" stroke-width="2" stroke-dasharray="5,2" d="M506,-180C506,-180 414,-180 414,-180 408,-180 402,-174 402,-168 402,-168 402,-156 402,-156 402,-150 408,-144 414,-144 414,-144 506,-144 506,-144 512,-144 518,-150 518,-156 518,-156 518,-168 518,-168 518,-174 512,-180 506,-180"/>
<text text-anchor="middle" x="460" y="-159.5" font-family="sans" font-size="10.00">concat_blast_results</text>
</g>
<!-- 2&#45;&gt;1 -->
<g id="edge2" class="edge">
<title>2&#45;&gt;1</title>
<path fill="none" stroke="grey" stroke-width="2" d="M460,-143.7C460,-135.98 460,-126.71 460,-118.11"/>
<polygon fill="grey" stroke="grey" stroke-width="2" points="463.5,-118.1 460,-108.1 456.5,-118.1 463.5,-118.1"/>
</g>
<!-- 3 -->
<g id="node4" class="node">
<title>3</title>
<path fill="none" stroke="#5682d8" stroke-width="2" stroke-dasharray="5,2" d="M375,-252C375,-252 289,-252 289,-252 283,-252 277,-246 277,-240 277,-240 277,-228 277,-228 277,-222 283,-216 289,-216 289,-216 375,-216 375,-216 381,-216 387,-222 387,-228 387,-228 387,-240 387,-240 387,-246 381,-252 375,-252"/>
<text text-anchor="middle" x="332" y="-231.5" font-family="sans" font-size="10.00">clean_blast_results</text>
</g>
<!-- 3&#45;&gt;2 -->
<g id="edge5" class="edge">
<title>3&#45;&gt;2</title>
<path fill="none" stroke="grey" stroke-width="2" d="M363.31,-215.88C380.2,-206.64 401.25,-195.13 419.38,-185.21"/>
<polygon fill="grey" stroke="grey" stroke-width="2" points="421.47,-188.06 428.57,-180.19 418.11,-181.92 421.47,-188.06"/>
</g>
<!-- 4 -->
<g id="node5" class="node">
<title>4</title>
<path fill="none" stroke="#afd856" stroke-width="2" stroke-dasharray="5,2" d="M351,-324C351,-324 313,-324 313,-324 307,-324 301,-318 301,-312 301,-312 301,-300 301,-300 301,-294 307,-288 313,-288 313,-288 351,-288 351,-288 357,-288 363,-294 363,-300 363,-300 363,-312 363,-312 363,-318 357,-324 351,-324"/>
<text text-anchor="middle" x="332" y="-303.5" font-family="sans" font-size="10.00">run_blast</text>
</g>
<!-- 4&#45;&gt;3 -->
<g id="edge8" class="edge">
<title>4&#45;&gt;3</title>
<path fill="none" stroke="grey" stroke-width="2" d="M332,-287.7C332,-279.98 332,-270.71 332,-262.11"/>
<polygon fill="grey" stroke="grey" stroke-width="2" points="335.5,-262.1 332,-252.1 328.5,-262.1 335.5,-262.1"/>
</g>
<!-- 5 -->
<g id="node6" class="node">
<title>5</title>
<path fill="none" stroke="#d8ac56" stroke-width="2" stroke-dasharray="5,2" d="M584,-409.5C584,-409.5 518,-409.5 518,-409.5 512,-409.5 506,-403.5 506,-397.5 506,-397.5 506,-385.5 506,-385.5 506,-379.5 512,-373.5 518,-373.5 518,-373.5 584,-373.5 584,-373.5 590,-373.5 596,-379.5 596,-385.5 596,-385.5 596,-397.5 596,-397.5 596,-403.5 590,-409.5 584,-409.5"/>
<text text-anchor="middle" x="551" y="-389" font-family="sans" font-size="10.00">make_blast_db</text>
</g>
<!-- 5&#45;&gt;4 -->
<g id="edge9" class="edge">
<title>5&#45;&gt;4</title>
<path fill="none" stroke="grey" stroke-width="2" d="M522.7,-373.43C514.28,-368.73 504.91,-363.87 496,-360 455.33,-342.35 406.8,-327.38 373.13,-317.89"/>
<polygon fill="grey" stroke="grey" stroke-width="2" points="373.76,-314.43 363.18,-315.13 371.88,-321.18 373.76,-314.43"/>
</g>
<!-- 9 -->
<g id="node10" class="node">
<title>9</title>
<path fill="none" stroke="#afd856" stroke-width="2" stroke-dasharray="5,2" d="M479,-324C479,-324 441,-324 441,-324 435,-324 429,-318 429,-312 429,-312 429,-300 429,-300 429,-294 435,-288 441,-288 441,-288 479,-288 479,-288 485,-288 491,-294 491,-300 491,-300 491,-312 491,-312 491,-318 485,-324 479,-324"/>
<text text-anchor="middle" x="460" y="-303.5" font-family="sans" font-size="10.00">run_blast</text>
</g>
<!-- 5&#45;&gt;9 -->
<g id="edge13" class="edge">
<title>5&#45;&gt;9</title>
<path fill="none" stroke="grey" stroke-width="2" d="M532.14,-373.2C518.97,-361.11 501.19,-344.79 486.57,-331.38"/>
<polygon fill="grey" stroke="grey" stroke-width="2" points="488.57,-328.46 478.83,-324.28 483.83,-333.62 488.57,-328.46"/>
</g>
<!-- 12 -->
<g id="node13" class="node">
<title>12</title>
<path fill="none" stroke="#afd856" stroke-width="2" stroke-dasharray="5,2" d="M607,-324C607,-324 569,-324 569,-324 563,-324 557,-318 557,-312 557,-312 557,-300 557,-300 557,-294 563,-288 569,-288 569,-288 607,-288 607,-288 613,-288 619,-294 619,-300 619,-300 619,-312 619,-312 619,-318 613,-324 607,-324"/>
<text text-anchor="middle" x="588" y="-303.5" font-family="sans" font-size="10.00">run_blast</text>
</g>
<!-- 5&#45;&gt;12 -->
<g id="edge16" class="edge">
<title>5&#45;&gt;12</title>
<path fill="none" stroke="grey" stroke-width="2" d="M558.67,-373.2C563.73,-361.78 570.46,-346.59 576.19,-333.64"/>
<polygon fill="grey" stroke="grey" stroke-width="2" points="579.49,-334.84 580.34,-324.28 573.09,-332 579.49,-334.84"/>
</g>
<!-- 6 -->
<g id="node7" class="node">
<title>6</title>
<path fill="none" stroke="#56d8d8" stroke-width="2" stroke-dasharray="5,2" d="M600.5,-500C600.5,-500 501.5,-500 501.5,-500 495.5,-500 489.5,-494 489.5,-488 489.5,-488 489.5,-471 489.5,-471 489.5,-465 495.5,-459 501.5,-459 501.5,-459 600.5,-459 600.5,-459 606.5,-459 612.5,-465 612.5,-471 612.5,-471 612.5,-488 612.5,-488 612.5,-494 606.5,-500 600.5,-500"/>
<text text-anchor="middle" x="551" y="-488" font-family="sans" font-size="10.00">template_gb_to_fasta</text>
<text text-anchor="middle" x="551" y="-477" font-family="sans" font-size="10.00">run_name: test&#45;run</text>
<text text-anchor="middle" x="551" y="-466" font-family="sans" font-size="10.00">template: pFC9</text>
</g>
<!-- 6&#45;&gt;5 -->
<g id="edge11" class="edge">
<title>6&#45;&gt;5</title>
<path fill="none" stroke="grey" stroke-width="2" d="M551,-458.99C551,-447.37 551,-432.46 551,-419.7"/>
<polygon fill="grey" stroke="grey" stroke-width="2" points="554.5,-419.61 551,-409.61 547.5,-419.61 554.5,-419.61"/>
</g>
<!-- 14 -->
<g id="node15" class="node">
<title>14</title>
<path fill="none" stroke="#56d882" stroke-width="2" stroke-dasharray="5,2" d="M101.5,-409.5C101.5,-409.5 50.5,-409.5 50.5,-409.5 44.5,-409.5 38.5,-403.5 38.5,-397.5 38.5,-397.5 38.5,-385.5 38.5,-385.5 38.5,-379.5 44.5,-373.5 50.5,-373.5 50.5,-373.5 101.5,-373.5 101.5,-373.5 107.5,-373.5 113.5,-379.5 113.5,-385.5 113.5,-385.5 113.5,-397.5 113.5,-397.5 113.5,-403.5 107.5,-409.5 101.5,-409.5"/>
<text text-anchor="middle" x="76" y="-389" font-family="sans" font-size="10.00">align_target</text>
</g>
<!-- 6&#45;&gt;14 -->
<g id="edge19" class="edge">
<title>6&#45;&gt;14</title>
<path fill="none" stroke="grey" stroke-width="2" d="M489.23,-479.18C403.95,-478.21 246.54,-469.46 122,-423 116.61,-420.99 111.22,-418.25 106.13,-415.23"/>
<polygon fill="grey" stroke="grey" stroke-width="2" points="107.65,-412.04 97.35,-409.58 103.87,-417.93 107.65,-412.04"/>
</g>
<!-- 16 -->
<g id="node17" class="node">
<title>16</title>
<path fill="none" stroke="#59d856" stroke-width="2" stroke-dasharray="5,2" d="M805.5,-409.5C805.5,-409.5 760.5,-409.5 760.5,-409.5 754.5,-409.5 748.5,-403.5 748.5,-397.5 748.5,-397.5 748.5,-385.5 748.5,-385.5 748.5,-379.5 754.5,-373.5 760.5,-373.5 760.5,-373.5 805.5,-373.5 805.5,-373.5 811.5,-373.5 817.5,-379.5 817.5,-385.5 817.5,-385.5 817.5,-397.5 817.5,-397.5 817.5,-403.5 811.5,-409.5 805.5,-409.5"/>
<text text-anchor="middle" x="783" y="-389" font-family="sans" font-size="10.00">align_local</text>
</g>
<!-- 6&#45;&gt;16 -->
<g id="edge21" class="edge">
<title>6&#45;&gt;16</title>
<path fill="none" stroke="grey" stroke-width="2" d="M612.51,-465.6C650.14,-456.44 698.64,-442.33 739,-423 743.48,-420.85 748.01,-418.28 752.37,-415.54"/>
<polygon fill="grey" stroke="grey" stroke-width="2" points="754.62,-418.24 761.01,-409.78 750.74,-412.41 754.62,-418.24"/>
</g>
<!-- 7 -->
<g id="node8" class="node">
<title>7</title>
<path fill="none" stroke="#80d856" stroke-width="2" stroke-dasharray="5,2" d="M308.5,-423C308.5,-423 143.5,-423 143.5,-423 137.5,-423 131.5,-417 131.5,-411 131.5,-411 131.5,-372 131.5,-372 131.5,-366 137.5,-360 143.5,-360 143.5,-360 308.5,-360 308.5,-360 314.5,-360 320.5,-366 320.5,-372 320.5,-372 320.5,-411 320.5,-411 320.5,-417 314.5,-423 308.5,-423"/>
<text text-anchor="middle" x="226" y="-411" font-family="sans" font-size="10.00">abi_to_fastq</text>
<text text-anchor="middle" x="226" y="-400" font-family="sans" font-size="10.00">read_date: 01&#45;05&#45;22</text>
<text text-anchor="middle" x="226" y="-389" font-family="sans" font-size="10.00">read_type: Template+Cas9+sgRNA</text>
<text text-anchor="middle" x="226" y="-378" font-family="sans" font-size="10.00">run_name: test&#45;run</text>
<text text-anchor="middle" x="226" y="-367" font-family="sans" font-size="10.00">sgRNA: sgRNA4</text>
</g>
<!-- 7&#45;&gt;4 -->
<g id="edge10" class="edge">
<title>7&#45;&gt;4</title>
<path fill="none" stroke="grey" stroke-width="2" d="M264.87,-359.88C277.23,-350.14 290.7,-339.53 302.31,-330.39"/>
<polygon fill="grey" stroke="grey" stroke-width="2" points="304.7,-332.96 310.39,-324.03 300.36,-327.47 304.7,-332.96"/>
</g>
<!-- 8 -->
<g id="node9" class="node">
<title>8</title>
<path fill="none" stroke="#5682d8" stroke-width="2" stroke-dasharray="5,2" d="M503,-252C503,-252 417,-252 417,-252 411,-252 405,-246 405,-240 405,-240 405,-228 405,-228 405,-222 411,-216 417,-216 417,-216 503,-216 503,-216 509,-216 515,-222 515,-228 515,-228 515,-240 515,-240 515,-246 509,-252 503,-252"/>
<text text-anchor="middle" x="460" y="-231.5" font-family="sans" font-size="10.00">clean_blast_results</text>
</g>
<!-- 8&#45;&gt;2 -->
<g id="edge6" class="edge">
<title>8&#45;&gt;2</title>
<path fill="none" stroke="grey" stroke-width="2" d="M460,-215.7C460,-207.98 460,-198.71 460,-190.11"/>
<polygon fill="grey" stroke="grey" stroke-width="2" points="463.5,-190.1 460,-180.1 456.5,-190.1 463.5,-190.1"/>
</g>
<!-- 9&#45;&gt;8 -->
<g id="edge12" class="edge">
<title>9&#45;&gt;8</title>
<path fill="none" stroke="grey" stroke-width="2" d="M460,-287.7C460,-279.98 460,-270.71 460,-262.11"/>
<polygon fill="grey" stroke="grey" stroke-width="2" points="463.5,-262.1 460,-252.1 456.5,-262.1 463.5,-262.1"/>
</g>
<!-- 10 -->
<g id="node11" class="node">
<title>10</title>
<path fill="none" stroke="#80d856" stroke-width="2" stroke-dasharray="5,2" d="M475.5,-423C475.5,-423 350.5,-423 350.5,-423 344.5,-423 338.5,-417 338.5,-411 338.5,-411 338.5,-372 338.5,-372 338.5,-366 344.5,-360 350.5,-360 350.5,-360 475.5,-360 475.5,-360 481.5,-360 487.5,-366 487.5,-372 487.5,-372 487.5,-411 487.5,-411 487.5,-417 481.5,-423 475.5,-423"/>
<text text-anchor="middle" x="413" y="-411" font-family="sans" font-size="10.00">abi_to_fastq</text>
<text text-anchor="middle" x="413" y="-400" font-family="sans" font-size="10.00">read_date: 01&#45;05&#45;22</text>
<text text-anchor="middle" x="413" y="-389" font-family="sans" font-size="10.00">read_type: Template+Cas9</text>
<text text-anchor="middle" x="413" y="-378" font-family="sans" font-size="10.00">run_name: test&#45;run</text>
<text text-anchor="middle" x="413" y="-367" font-family="sans" font-size="10.00">sgRNA: sgRNA4</text>
</g>
<!-- 10&#45;&gt;9 -->
<g id="edge14" class="edge">
<title>10&#45;&gt;9</title>
<path fill="none" stroke="grey" stroke-width="2" d="M430.23,-359.88C435.24,-350.99 440.65,-341.38 445.47,-332.82"/>
<polygon fill="grey" stroke="grey" stroke-width="2" points="448.56,-334.46 450.42,-324.03 442.46,-331.02 448.56,-334.46"/>
</g>
<!-- 11 -->
<g id="node12" class="node">
<title>11</title>
<path fill="none" stroke="#5682d8" stroke-width="2" stroke-dasharray="5,2" d="M631,-252C631,-252 545,-252 545,-252 539,-252 533,-246 533,-240 533,-240 533,-228 533,-228 533,-222 539,-216 545,-216 545,-216 631,-216 631,-216 637,-216 643,-222 643,-228 643,-228 643,-240 643,-240 643,-246 637,-252 631,-252"/>
<text text-anchor="middle" x="588" y="-231.5" font-family="sans" font-size="10.00">clean_blast_results</text>
</g>
<!-- 11&#45;&gt;2 -->
<g id="edge7" class="edge">
<title>11&#45;&gt;2</title>
<path fill="none" stroke="grey" stroke-width="2" d="M556.69,-215.88C539.8,-206.64 518.75,-195.13 500.62,-185.21"/>
<polygon fill="grey" stroke="grey" stroke-width="2" points="501.89,-181.92 491.43,-180.19 498.53,-188.06 501.89,-181.92"/>
</g>
<!-- 12&#45;&gt;11 -->
<g id="edge15" class="edge">
<title>12&#45;&gt;11</title>
<path fill="none" stroke="grey" stroke-width="2" d="M588,-287.7C588,-279.98 588,-270.71 588,-262.11"/>
<polygon fill="grey" stroke="grey" stroke-width="2" points="591.5,-262.1 588,-252.1 584.5,-262.1 591.5,-262.1"/>
</g>
<!-- 13 -->
<g id="node14" class="node">
<title>13</title>
<path fill="none" stroke="#80d856" stroke-width="2" stroke-dasharray="5,2" d="M718,-423C718,-423 626,-423 626,-423 620,-423 614,-417 614,-411 614,-411 614,-372 614,-372 614,-366 620,-360 626,-360 626,-360 718,-360 718,-360 724,-360 730,-366 730,-372 730,-372 730,-411 730,-411 730,-417 724,-423 718,-423"/>
<text text-anchor="middle" x="672" y="-411" font-family="sans" font-size="10.00">abi_to_fastq</text>
<text text-anchor="middle" x="672" y="-400" font-family="sans" font-size="10.00">read_date: 01&#45;05&#45;22</text>
<text text-anchor="middle" x="672" y="-389" font-family="sans" font-size="10.00">read_type: Template</text>
<text text-anchor="middle" x="672" y="-378" font-family="sans" font-size="10.00">run_name: test&#45;run</text>
<text text-anchor="middle" x="672" y="-367" font-family="sans" font-size="10.00">sgRNA: sgRNA4</text>
</g>
<!-- 13&#45;&gt;12 -->
<g id="edge17" class="edge">
<title>13&#45;&gt;12</title>
<path fill="none" stroke="grey" stroke-width="2" d="M641.2,-359.88C631.69,-350.43 621.35,-340.15 612.34,-331.19"/>
<polygon fill="grey" stroke="grey" stroke-width="2" points="614.69,-328.59 605.13,-324.03 609.75,-333.56 614.69,-328.59"/>
</g>
<!-- 14&#45;&gt;1 -->
<g id="edge3" class="edge">
<title>14&#45;&gt;1</title>
<path fill="none" stroke="grey" stroke-width="2" d="M93.16,-373.14C125.77,-340.58 199.54,-268.85 268,-216 318.97,-176.65 382.26,-137.08 421.9,-113.31"/>
<polygon fill="grey" stroke="grey" stroke-width="2" points="423.92,-116.17 430.72,-108.04 420.34,-110.16 423.92,-116.17"/>
</g>
<!-- 15 -->
<g id="node16" class="node">
<title>15</title>
<path fill="none" stroke="#d88556" stroke-width="2" stroke-dasharray="5,2" d="M140,-500C140,-500 12,-500 12,-500 6,-500 0,-494 0,-488 0,-488 0,-471 0,-471 0,-465 6,-459 12,-459 12,-459 140,-459 140,-459 146,-459 152,-465 152,-471 152,-471 152,-488 152,-488 152,-494 146,-500 140,-500"/>
<text text-anchor="middle" x="76" y="-488" font-family="sans" font-size="10.00">make_target_site_fasta_file</text>
<text text-anchor="middle" x="76" y="-477" font-family="sans" font-size="10.00">run_name: test&#45;run</text>
<text text-anchor="middle" x="76" y="-466" font-family="sans" font-size="10.00">sgRNA: sgRNA4</text>
</g>
<!-- 15&#45;&gt;14 -->
<g id="edge18" class="edge">
<title>15&#45;&gt;14</title>
<path fill="none" stroke="grey" stroke-width="2" d="M76,-458.99C76,-447.37 76,-432.46 76,-419.7"/>
<polygon fill="grey" stroke="grey" stroke-width="2" points="79.5,-419.61 76,-409.61 72.5,-419.61 79.5,-419.61"/>
</g>
<!-- 16&#45;&gt;1 -->
<g id="edge4" class="edge">
<title>16&#45;&gt;1</title>
<path fill="none" stroke="grey" stroke-width="2" d="M772.96,-373.33C752.98,-340.14 705.54,-266.07 652,-216 605.95,-172.93 543.32,-135.28 502.29,-112.84"/>
<polygon fill="grey" stroke="grey" stroke-width="2" points="503.83,-109.69 493.37,-108.01 500.5,-115.85 503.83,-109.69"/>
</g>
<!-- 17 -->
<g id="node18" class="node">
<title>17</title>
<path fill="none" stroke="#d6d856" stroke-width="2" stroke-dasharray="5,2" d="M837,-500C837,-500 729,-500 729,-500 723,-500 717,-494 717,-488 717,-488 717,-471 717,-471 717,-465 723,-459 729,-459 729,-459 837,-459 837,-459 843,-459 849,-465 849,-471 849,-471 849,-488 849,-488 849,-494 843,-500 837,-500"/>
<text text-anchor="middle" x="783" y="-488" font-family="sans" font-size="10.00">make_primer_fasta_file</text>
<text text-anchor="middle" x="783" y="-477" font-family="sans" font-size="10.00">primer_name: oEH24</text>
<text text-anchor="middle" x="783" y="-466" font-family="sans" font-size="10.00">run_name: test&#45;run</text>
</g>
<!-- 17&#45;&gt;16 -->
<g id="edge20" class="edge">
<title>17&#45;&gt;16</title>
<path fill="none" stroke="grey" stroke-width="2" d="M783,-458.99C783,-447.37 783,-432.46 783,-419.7"/>
<polygon fill="grey" stroke="grey" stroke-width="2" points="786.5,-419.61 783,-409.61 779.5,-419.61 786.5,-419.61"/>
</g>
</g>
</svg>
